<svg width="235" height="219" viewBox="0 0 235 219" fill="none" xmlns="http://www.w3.org/2000/svg">
<rect x="3" y="3.13943" width="229" height="212.861" rx="23" fill="white" stroke="#008080" stroke-width="6"/>
<path d="M57.5479 169L80.9121 127.398C77.2988 128.375 73.2949 128.863 68.9004 128.863C60.502 128.863 53.7637 127.325 48.6855 124.249C43.6074 121.124 39.9209 116.925 37.626 111.651C35.3311 106.329 34.1836 100.421 34.1836 93.9268C34.1836 87.5791 35.3555 81.7686 37.6992 76.4951C40.0918 71.1729 44.0713 66.9004 49.6377 63.6777C55.2529 60.4551 62.8701 58.8438 72.4893 58.8438C82.1084 58.8438 89.7988 60.4307 95.5605 63.6045C101.371 66.7295 105.57 70.9531 108.158 76.2754C110.795 81.5488 112.113 87.4326 112.113 93.9268C112.113 98.8096 111.698 103.473 110.868 107.916C110.038 112.311 108.695 116.803 106.84 121.393C104.984 125.982 102.494 131.036 99.3691 136.554L80.9854 169H57.5479ZM73.002 113.556C78.0312 113.556 81.8887 112.628 84.5742 110.772C87.3086 108.868 89.1885 106.427 90.2139 103.448C91.2393 100.47 91.752 97.3691 91.752 94.1465C91.752 90.875 91.1904 87.7744 90.0674 84.8447C88.9443 81.915 86.9912 79.5225 84.208 77.667C81.4736 75.8115 77.6895 74.8838 72.8555 74.8838C68.0215 74.8838 64.2617 75.8115 61.5762 77.667C58.9395 79.5225 57.084 81.915 56.0098 84.8447C54.9844 87.7744 54.4717 90.875 54.4717 94.1465C54.4717 97.3691 54.96 100.47 55.9365 103.448C56.9131 106.427 58.7441 108.868 61.4297 110.772C64.1152 112.628 67.9727 113.556 73.002 113.556ZM128.871 169L168.275 78.9121H119.35V60.8945H192.445V75.9824L151.869 169H128.871Z" fill="#008080"/>
</svg>
